<svg xmlns="http://www.w3.org/2000/svg" version="1.1" xmlns:xlink="http://www.w3.org/1999/xlink" xmlns:svgjs="http://svgjs.dev/svgjs" width="100%" height="100%" viewBox="0 0 1000 600"><rect width="1000" height="600" x="0" y="0" fill="#262223"/><g><rect width="333.3333333333333" height="333.3333333333333" y="360.05008566134364" fill="#8a3bbf" transform="matrix(0.37001092778789263,0,0,0.37001092778789263,0,105.10904004226585)" x="337.8277893066406"/><path d="M401.3403506332776 601.7167556963279L401.3403506332776 601.7167556963279L401.3403506332776 598.0389159846441Q407.04332993304035 597.0147074573397 409.8831808496569 593.4299776117746Q412.74630923280307 589.8219702996798 413.74724029357776 582.6990655416089Q414.74817135435245 575.5761607835377 414.74817135435245 564.0072599183047L414.74817135435245 564.0072599183047L414.74817135435245 469.31452607571373Q414.74817135435245 463.44860451024346 413.49118816175167 460.8415282589234Q412.23420496915094 458.25772947413293 408.8822497888822 457.41974067906574Q405.53029460861353 456.5817518839986 398.82638424807607 456.41880961829105L398.82638424807607 456.41880961829105L398.82638424807607 452.5547501743702L440.72582400143494 452.5547501743702L440.72582400143494 456.41880961829105Q436.20999549468405 456.5817518839986 433.69602910948254 457.41974067906574Q431.18206272428097 458.25772947413293 430.08802179738774 460.8415282589234Q428.99398087049445 463.44860451024346 428.99398087049445 469.31452607571373L428.99398087049445 469.31452607571373L428.99398087049445 566.1953417720913Q428.99398087049445 578.2530694344468 425.22303129269216 586.1208531214666Q421.45208171488986 594.0119142750157 415.16716575188605 597.852696252407Q408.8822497888822 601.7167556963279 401.3403506332776 601.7167556963279ZM509.277962931236 564.0072599183047L462.18764814176654 564.0072599183047L462.18764814176654 560.143200474384Q466.70347664851744 559.9802582086764 469.31055289983755 559.1422694136093Q471.894351684628 558.3042806185421 472.91856021193234 555.627371967633Q473.91949127270703 552.9504633167239 473.91949127270703 547.2474840169613L473.91949127270703 547.2474840169613L473.91949127270703 469.31452607571373Q473.91949127270703 463.44860451024346 472.66250808010625 460.8415282589234Q471.4055248875055 458.25772947413293 468.05356970723676 457.41974067906574Q464.7016145269681 456.5817518839986 457.99770416643065 456.41880961829105L457.99770416643065 456.41880961829105L457.99770416643065 452.5547501743702L473.91949127270703 452.5547501743702Q482.1364369576713 452.5547501743702 487.3273119937819 452.2986980425441Q492.51818702989243 452.042645910718 496.9641831370544 451.8797036450105Q501.41017924421635 451.716761379303 507.2761008096866 451.716761379303L507.2761008096866 451.716761379303Q525.0368077718049 451.716761379303 533.2537534567691 457.83873507659933Q541.4474216752037 463.96070877389565 541.4474216752037 473.8303545824646L541.4474216752037 473.8303545824646Q541.4474216752037 484.0724398555079 534.7435113146663 490.1013036866857Q528.0396009541289 496.1301675178634 518.3328974112674 499.6450649638396L518.3328974112674 499.6450649638396L518.3328974112674 499.9942269617843Q528.5517052177811 500.4830537589068 536.5125987709192 503.9281188052941Q544.4734923240575 507.3499063851517 549.1755405630455 513.5649899485666Q553.8543113355039 519.7567960454519 553.8543113355039 528.6487882597758L553.8543113355039 528.6487882597758Q553.8543113355039 537.3545607418627 549.2453729626344 545.4783965607083Q544.636434589765 553.6255098460837 534.836621180785 558.8163848821943Q525.0368077718049 564.0072599183047 509.277962931236 564.0072599183047L509.277962931236 564.0072599183047ZM488.16530078884904 469.31452607571373L488.16530078884904 501.9960890833337Q490.3301051761059 500.4830537589068 492.26213489806634 500.0640593613732Q494.1941646200268 499.6450649638396 496.8710732709359 499.4821226981321L496.8710732709359 499.4821226981321Q501.8990060413389 498.97001843448 507.02004867786053 497.89925497411633Q512.1178138478525 496.8052140472231 516.400867689307 494.29124766202153Q520.6839215307614 491.77728127682 523.3608301816705 487.33128516965803Q526.0377388325795 482.8852890624961 526.0377388325795 476.0184364362512L526.0377388325795 476.0184364362512Q526.0377388325795 468.15065274923154 522.3598991208958 464.28659330531065Q518.6587819426825 460.4225338613898 513.1420223751569 459.09571826920006Q507.6019853411016 457.7456252104808 501.73606377563135 457.7456252104808L501.73606377563135 457.7456252104808Q494.5200491514418 457.7456252104808 491.3543137034103 459.5845450663226Q488.16530078884904 461.44674238869413 488.16530078884904 469.31452607571373L488.16530078884904 469.31452607571373ZM507.9278698725167 557.9783960871271L507.9278698725167 557.9783960871271Q519.8459327356943 557.9783960871271 526.4567332301132 553.6255098460837Q533.067533724532 549.2493461385106 535.7677198419707 542.8014879097993Q538.4446284928797 536.3536296810879 538.4446284928797 529.9756038519655L538.4446284928797 529.9756038519655Q538.4446284928797 520.7577271062266 533.8356901200102 515.3107999382898Q529.2267517471407 509.8638727703533 521.42880045971 507.4430162512703Q513.6308491722793 505.02215973218733 503.9241456294179 505.02215973218733L503.9241456294179 505.02215973218733Q495.70719994445363 505.02215973218733 491.9362503666514 507.1171317198553Q488.16530078884904 509.2121037075232 488.16530078884904 514.8918055407563L488.16530078884904 514.8918055407563L488.16530078884904 547.2474840169613Q488.16530078884904 552.1124745216568 489.84127837898336 554.3703887750323Q491.51725596911774 556.6283030284077 495.7770323440426 557.3033495577674Q500.060086185497 557.9783960871271 507.9278698725167 557.9783960871271ZM570.777029502555 601.7167556963279L570.777029502555 601.7167556963279L570.777029502555 598.0389159846441Q576.4800088023177 597.0147074573397 579.3431371854639 593.4299776117746Q582.1829881020805 589.8219702996798 583.1839191628551 582.6990655416089Q584.1848502236298 575.5761607835377 584.1848502236298 564.0072599183047L584.1848502236298 564.0072599183047L584.1848502236298 469.31452607571373Q584.1848502236298 463.44860451024346 582.9278670310291 460.8415282589234Q581.6708838384283 458.25772947413293 578.3189286581596 457.41974067906574Q574.9669734778909 456.5817518839986 568.2630631173535 456.41880961829105L568.2630631173535 456.41880961829105L568.2630631173535 452.5547501743702L610.1625028707123 452.5547501743702L610.1625028707123 456.41880961829105Q605.6466743639614 456.5817518839986 603.1327079787599 457.41974067906574Q600.6187415935583 458.25772947413293 599.5247006666651 460.8415282589234Q598.4306597397718 463.44860451024346 598.4306597397718 469.31452607571373L598.4306597397718 469.31452607571373L598.4306597397718 566.1953417720913Q598.4306597397718 578.2530694344468 594.6597101619695 586.1208531214666Q590.8887605841672 594.0119142750157 584.6038446211634 597.852696252407Q578.3189286581596 601.7167556963279 570.777029502555 601.7167556963279Z " fill="#42e0ce" transform="matrix(0.37001092778789263,0,0,0.37001092778789263,0,105.10904004226585)"/><path d="M756.7065929116247 601.7167673536317L756.7065929116247 601.7167673536317L756.7065929116247 598.4804762955653Q761.7248923371071 597.5792306844583 764.2238006224493 594.4248710455836Q766.7431917625895 591.2500285519111 767.6239545188987 584.9822749837576Q768.5047172752079 578.7145214156039 768.5047172752079 568.534542581054L768.5047172752079 568.534542581054L768.5047172752079 485.21028926324766Q768.5047172752079 480.04860985418003 767.3986431161219 477.7545301168166Q766.292568957036 475.48093323425115 763.3430378661402 474.7435504615272Q760.3935067752444 474.00616768880326 754.4944445934528 473.86278770521807L754.4944445934528 473.86278770521807L754.4944445934528 470.4626338087687L791.3635832296502 470.4626338087687L791.3635832296502 473.86278770521807Q787.38990939886 474.00616768880326 785.1777610806882 474.7435504615272Q782.9656127625163 475.48093323425115 782.0029185870156 477.7545301168166Q781.0402244115149 480.04860985418003 781.0402244115149 485.21028926324766L781.0402244115149 485.21028926324766L781.0402244115149 570.4599309320554Q781.0402244115149 581.0700497173609 777.7220019342572 587.9932546390469Q774.4037794569995 594.9369424155309 768.8734086615698 598.3166134571823Q763.3430378661402 601.7167673536317 756.7065929116247 601.7167673536317ZM840.91160898574 501.43271026317456L840.91160898574 501.43271026317456Q849.473442291257 501.43271026317456 856.6219586157197 505.6316954967415Q863.7704749401823 509.8306807303084 868.1947715765261 517.368371295931Q872.6190682128698 524.8855790067557 872.6190682128698 534.9016950029227L872.6190682128698 534.9016950029227Q872.6190682128698 543.75028827561 869.6080885575803 550.4686646493171Q866.5766260474929 557.1870410230242 861.5583266220106 561.6727862237616Q856.560510051326 566.1790142792968 850.5795164503429 568.4526111618623Q844.5985228493597 570.7466908992258 838.8633235059513 570.7466908992258L838.8633235059513 570.7466908992258Q830.4448701840195 570.7466908992258 823.2144224403653 566.5477056656588Q816.0044575515088 562.3487204320918 811.6416094795588 554.8110298664692Q807.2992442624067 547.2938221556445 807.2992442624067 537.2777061594776L807.2992442624067 537.2777061594776Q807.2992442624067 528.4291128867902 810.3102239176961 521.7107365130831Q813.3416864277835 514.992360139376 818.3599858532659 510.5066149386387Q823.3782852787483 506.00038688310343 829.2773474605399 503.72679000053796Q835.1764096423315 501.43271026317456 840.91160898574 501.43271026317456ZM841.3622317912935 564.8476287174342L841.3622317912935 564.8476287174342Q850.0674450803957 564.8476287174342 855.0857445058781 558.5798751492805Q860.0835610765627 552.312121581127 860.0835610765627 539.1826116556811L860.0835610765627 539.1826116556811Q860.0835610765627 530.1906383994085 857.3593413884436 522.9601906557543Q854.6351217003246 515.7297429120999 849.7602022584274 511.53075767853306Q844.905765671328 507.33177244496613 838.4127007003977 507.33177244496613L838.4127007003977 507.33177244496613Q829.8508673948808 507.33177244496613 824.8530508241962 513.5995260131197Q819.8347513987138 519.8672795812732 819.8347513987138 532.9967895067191L819.8347513987138 532.9967895067191Q819.8347513987138 541.8453827794065 822.5589710868328 549.0758305230607Q825.2831907749519 556.2857954119172 830.1581102168491 560.5667120646756Q835.0125468039485 564.8476287174342 841.3622317912935 564.8476287174342ZM949.4707394145435 518.3925140358253L949.4707394145435 553.6435071429896Q949.4707394145435 558.8051865520573 950.4129507352463 561.1607148538144Q951.375644910747 563.5162431555714 954.0998645988661 564.2536259282954Q956.844567141783 564.9910087010194 961.8423837124675 565.1343886846046L961.8423837124675 565.1343886846046L961.8423837124675 568.534542581054L928.8240217782729 568.534542581054L928.8240217782729 565.1343886846046Q932.2036928199243 564.9910087010194 934.1290811709258 564.2536259282954Q936.0339866671293 563.5162431555714 936.8533008590448 561.1607148538144Q937.6726150509603 558.8051865520573 937.6726150509603 553.6435071429896L937.6726150509603 553.6435071429896L937.6726150509603 521.93604791586Q937.6726150509603 516.7743685067923 935.4604667327885 513.8248374158965Q933.2483184146166 510.8753063250007 927.4926362164102 510.8753063250007L927.4926362164102 510.8753063250007Q922.7610967580982 510.8753063250007 917.3945888010518 512.9440746595873Q912.0075979892074 514.992360139376 906.3952957745862 519.4166567757197L906.3952957745862 519.4166567757197L906.3952957745862 553.6435071429896Q906.3952957745862 558.8051865520573 907.4399213692784 561.1607148538144Q908.4640641091728 563.5162431555714 911.1882837972919 564.2536259282954Q913.9125034854109 564.9910087010194 918.9308029108934 565.1343886846046L918.9308029108934 565.1343886846046L918.9308029108934 568.534542581054L885.7485781383157 568.534542581054L885.7485781383157 565.1343886846046Q889.148732034765 564.9910087010194 891.0536375309684 564.2536259282954Q892.9790258819698 563.5162431555714 893.7983400738854 561.1607148538144Q894.597171411003 558.8051865520573 894.597171411003 553.6435071429896L894.597171411003 553.6435071429896L894.597171411003 471.65063938704617Q894.597171411003 467.5131027178729 893.4296486875235 466.32509713959547Q892.241643109246 465.1575744161159 890.0294947910741 465.1575744161159L890.0294947910741 465.1575744161159Q888.1041064400727 465.1575744161159 885.9738895410924 465.7515772052546Q883.8436726421121 466.32509713959547 882.0616642746959 467.2263427507025L882.0616642746959 467.2263427507025L880.586898729248 463.8261888542532L906.1085358074158 452.02806449067003L906.9892985637249 452.9088272469792Q906.8459185801397 454.0968328252566 906.6206071773629 459.2585122343243Q906.3952957745862 464.4201916433919 906.3952957745862 471.4867765486631L906.3952957745862 471.4867765486631L906.3952957745862 514.8489801557909Q912.1509779727926 508.9499179739993 918.6440429437229 505.20155554598585Q925.1371079146531 501.43271026317456 932.7976956090631 501.43271026317456L932.7976956090631 501.43271026317456Q941.9330488489209 501.43271026317456 945.7018941317322 506.082318302295Q949.4707394145435 510.7319263414155 949.4707394145435 518.3925140358253L949.4707394145435 518.3925140358253ZM1035.0071410505216 518.3925140358253L1035.0071410505216 553.6435071429896Q1035.0071410505216 558.8051865520573 1035.9493523712244 561.1607148538144Q1036.912046546725 563.5162431555714 1039.6362662348442 564.2536259282954Q1042.380968777761 564.9910087010194 1047.5426481868285 565.1343886846046L1047.5426481868285 565.1343886846046L1047.5426481868285 568.534542581054L1014.360423414251 568.534542581054L1014.360423414251 565.1343886846046Q1017.5967144723172 564.9910087010194 1019.5221028233186 564.2536259282954Q1021.4270083195222 563.5162431555714 1022.3077710758314 561.1607148538144Q1023.2090166869384 558.8051865520573 1023.2090166869384 553.6435071429896L1023.2090166869384 553.6435071429896L1023.2090166869384 521.93604791586Q1023.2090166869384 516.7743685067923 1020.9149369495749 513.8248374158965Q1018.6208572122116 510.8753063250007 1013.0290378523882 510.8753063250007L1013.0290378523882 510.8753063250007Q1008.154118410491 510.8753063250007 1002.8490590178383 512.9440746595873Q997.5439996251854 514.992360139376 991.9316974105642 519.4166567757197L991.9316974105642 519.4166567757197L991.9316974105642 553.6435071429896Q991.9316974105642 558.8051865520573 992.8943915860649 561.1607148538144Q993.8570857615656 563.5162431555714 996.5813054496847 564.2536259282954Q999.3055251378037 564.9910087010194 1004.4672045468714 565.1343886846046L1004.4672045468714 565.1343886846046L1004.4672045468714 568.534542581054L971.2849797742937 568.534542581054L971.2849797742937 565.1343886846046Q974.685133670743 564.9910087010194 976.5900391669466 564.2536259282954Q978.515427517948 563.5162431555714 979.3347417098635 561.1607148538144Q980.133573046981 558.8051865520573 980.133573046981 553.6435071429896L980.133573046981 553.6435071429896L980.133573046981 520.1540395484437Q980.133573046981 516.1803657176536 978.9660503235015 514.9309115749824Q977.778044745224 513.6814574323113 975.7092764106374 513.6814574323113L975.7092764106374 513.6814574323113Q974.0911308816042 513.6814574323113 972.5344339169648 514.0501488186733Q970.9982198071232 514.4188402050352 969.3800742780901 515.1562229777592L969.3800742780901 515.1562229777592L967.9053087326422 511.7560690813098L991.6449374433938 500.6953274904506L992.5257001997029 501.57609024675975Q992.2389402325325 502.90747580862245 991.8702488461705 506.7377696558274Q991.5015574598085 510.56806350303236 991.5015574598085 514.8489801557909L991.5015574598085 514.8489801557909L991.788317426979 514.8489801557909Q997.4006196416002 508.9499179739993 1003.9551331769242 505.20155554598585Q1010.5096467122481 501.43271026317456 1018.190717261456 501.43271026317456L1018.190717261456 501.43271026317456Q1027.633313323282 501.43271026317456 1031.3202271869018 506.082318302295Q1035.0071410505216 510.7319263414155 1035.0071410505216 518.3925140358253L1035.0071410505216 518.3925140358253ZM1144.5699313644216 568.534542581054L1103.1331161082953 568.534542581054L1103.1331161082953 565.1343886846046Q1107.1067899390855 564.9910087010194 1109.4008696764488 564.2536259282954Q1111.694949413812 563.5162431555714 1112.5757121701213 561.1607148538144Q1113.4564749264305 558.8051865520573 1113.4564749264305 553.7868871265748L1113.4564749264305 553.7868871265748L1113.4564749264305 485.21028926324766Q1113.4564749264305 480.04860985418003 1112.3504007673446 477.7545301168166Q1111.2443266082587 475.48093323425115 1108.2947955173627 474.7435504615272Q1105.345264426467 474.00616768880326 1099.4462022446755 473.86278770521807L1099.4462022446755 473.86278770521807L1099.4462022446755 470.4626338087687L1113.4564749264305 470.4626338087687Q1120.6869226700846 470.4626338087687 1125.2545992900136 470.23732240599196Q1129.8222759099426 470.0120110032152 1133.734501176339 469.86863101962996Q1137.6467264427356 469.72525103604477 1142.8084058518032 469.72525103604477L1142.8084058518032 469.72525103604477Q1158.4368240625913 469.72525103604477 1165.6672718062455 475.11224184788915Q1172.8977195498999 480.4992326597336 1172.8977195498999 489.18396309403784L1172.8977195498999 489.18396309403784Q1172.8977195498999 498.1964192051083 1166.9986573681083 503.5014785977612Q1161.0995951863167 508.80653799041403 1152.5377618807997 511.89944906489507L1152.5377618807997 511.89944906489507L1152.5377618807997 512.2066918868634Q1161.5297351370723 512.636831837619 1168.5348714779498 515.6682943477064Q1175.5400078188272 518.6792740029957 1179.6775444880006 524.1481962340317Q1183.794598302376 529.5966356102698 1183.794598302376 537.4210861430628L1183.794598302376 537.4210861430628Q1183.794598302376 545.0816738374727 1179.738993052394 552.2301901619354Q1175.6833878024127 559.399189341196 1167.060105932502 563.966865961125Q1158.4368240625913 568.534542581054 1144.5699313644216 568.534542581054L1144.5699313644216 568.534542581054ZM1125.9919820627376 485.21028926324766L1125.9919820627376 513.9682173994817Q1127.917370413739 512.636831837619 1129.596964507166 512.2681404512571Q1131.2970414553906 511.89944906489507 1133.6525697571474 511.7560690813098L1133.6525697571474 511.7560690813098Q1138.0768663934912 511.3054462757563 1142.5830944490265 510.3632349550535Q1147.0893225045616 509.4005407795528 1150.837684932575 507.18839246138094Q1154.6065302153863 504.9762441432091 1156.9620585171435 501.0640188768126Q1159.3175868189005 497.15179361041606 1159.3175868189005 491.1093514450393L1159.3175868189005 491.1093514450393Q1159.3175868189005 484.18614652335333 1156.0812957608343 480.785992626904Q1152.8245218479701 477.3858387304547 1147.9700852608707 476.2183160069751Q1143.0951658189736 475.03031042869765 1137.933486409906 475.03031042869765L1137.933486409906 475.03031042869765Q1131.6042842773586 475.03031042869765 1128.7981331700482 476.64845595773073Q1125.9919820627376 478.28708434156175 1125.9919820627376 485.21028926324766L1125.9919820627376 485.21028926324766ZM1143.402408640942 563.229483188401L1143.402408640942 563.229483188401Q1153.8691474426623 563.229483188401 1159.6862782052624 559.399189341196Q1165.5238918226605 555.5484126391932 1167.8794201244175 549.8746618601783Q1170.2349484261745 544.2009110811636 1170.2349484261745 538.5886088665425L1170.2349484261745 538.5886088665425Q1170.2349484261745 530.477398366579 1166.1793431761928 525.6844103438733Q1162.123737926211 520.8914223211676 1155.2619815689188 518.7612054221873Q1148.4002252116265 516.6309885232071 1139.8588747609074 516.6309885232071L1139.8588747609074 516.6309885232071Q1132.6284270172532 516.6309885232071 1129.3102045399955 518.4744454550168Q1125.9919820627376 520.3179023868267 1125.9919820627376 525.3157189575113L1125.9919820627376 525.3157189575113L1125.9919820627376 553.7868871265748Q1125.9919820627376 558.0678037793334 1127.4667476081854 560.0546406947285Q1128.9415131536334 562.0414776101236 1132.7103584364447 562.6354803992623Q1136.458720864458 563.229483188401 1143.402408640942 563.229483188401ZM1218.164828653231 471.4867765486631L1218.164828653231 553.6435071429896Q1218.164828653231 558.8051865520573 1219.1889713931255 561.1607148538144Q1220.2335969878177 563.5162431555714 1222.9578166759368 564.2536259282954Q1225.6820363640559 564.9910087010194 1230.7003357895383 565.1343886846046L1230.7003357895383 565.1343886846046L1230.7003357895383 568.534542581054L1197.5181110169606 568.534542581054L1197.5181110169606 565.1343886846046Q1200.754402075027 564.9910087010194 1202.6797904260284 564.2536259282954Q1204.6051787770298 563.5162431555714 1205.4859415333387 561.1607148538144Q1206.366704289648 558.8051865520573 1206.366704289648 553.6435071429896L1206.366704289648 553.6435071429896L1206.366704289648 471.65063938704617Q1206.366704289648 467.5131027178729 1205.1172501469769 466.32509713959547Q1203.8677960043058 465.1575744161159 1201.7990276697192 465.1575744161159L1201.7990276697192 465.1575744161159Q1199.8736393187176 465.1575744161159 1197.7434224197373 465.7515772052546Q1195.5927226659592 466.32509713959547 1193.8311971533408 467.2263427507025L1193.8311971533408 467.2263427507025L1192.356431607893 463.8261888542532L1217.8780686860607 452.02806449067003L1218.75883144237 452.9088272469792Q1218.6154514587847 454.0968328252566 1218.390140056008 459.2585122343243Q1218.164828653231 464.4201916433919 1218.164828653231 471.4867765486631L1218.164828653231 471.4867765486631ZM1256.6521128184618 570.7466908992258L1256.6521128184618 570.7466908992258Q1249.7289078967758 570.7466908992258 1245.3660598248257 567.1417084547975Q1241.0236946076736 563.5162431555714 1241.0236946076736 556.7364182174707L1241.0236946076736 556.7364182174707Q1241.0236946076736 551.2879788412326 1244.4238485041228 546.6998193665058Q1247.8035195457744 542.132142746577 1255.6279700785674 538.301848899372Q1263.4319377565625 534.4715550521671 1276.8686905039767 531.2147811393029L1276.8686905039767 531.2147811393029L1276.8686905039767 521.6288050938915Q1276.8686905039767 515.5863629285147 1274.2878507994428 511.6126890977246Q1271.707011094909 507.6185324121366 1264.4765633512548 507.6185324121366L1264.4765633512548 507.6185324121366Q1257.532875574771 507.6185324121366 1253.477270324789 511.98138048408657Q1249.4216650748074 516.3237457012387 1247.8035195457744 525.4795817958944L1247.8035195457744 525.4795817958944L1244.4238485041228 525.4795817958944L1244.4238485041228 507.0450124777957Q1249.5855279131906 504.52562133765554 1255.4026586757905 502.989407227814Q1261.2197894383905 501.43271026317456 1268.3068571984595 501.43271026317456L1268.3068571984595 501.43271026317456Q1276.418067698423 501.43271026317456 1280.7604329155752 503.56292716215484Q1285.123280987525 505.71362691593305 1286.8848065001434 509.543920763138Q1288.6668148675599 513.374214610343 1288.6668148675599 518.5358940194105L1288.6668148675599 518.5358940194105L1288.6668148675599 554.2375099321284Q1288.6668148675599 562.0414776101236 1293.521251454659 562.0414776101236L1293.521251454659 562.0414776101236Q1295.3032598220752 562.0414776101236 1297.576856704641 560.873954886644Q1299.8709364420042 559.6859493083665 1302.9638475164852 555.9990354447467L1302.9638475164852 555.9990354447467L1305.3193758182424 558.3545637465038Q1298.5395508801416 570.0093081265018 1289.0969548183152 570.0093081265018L1289.0969548183152 570.0093081265018Q1279.367598789319 570.0093081265018 1277.155450471147 560.13657211392L1277.155450471147 560.13657211392L1276.8686905039767 560.13657211392Q1268.7574800040131 570.7466908992258 1256.6521128184618 570.7466908992258ZM1262.1210350494976 562.0414776101236L1262.1210350494976 562.0414776101236Q1269.1876199547687 562.0414776101236 1276.8686905039767 555.5484126391932L1276.8686905039767 555.5484126391932L1276.8686905039767 535.8029406140297Q1266.2380888638731 538.4452288829572 1261.2197894383905 541.6200713766298Q1256.221972867706 544.7949138703023 1254.6652759030667 547.9697563639749Q1253.1085789384272 551.1241160028495 1253.1085789384272 553.7868871265748L1253.1085789384272 553.7868871265748Q1253.1085789384272 558.0678037793334 1255.7713500621526 560.0546406947285Q1258.4341211858778 562.0414776101236 1262.1210350494976 562.0414776101236ZM1375.083979259847 518.3925140358253L1375.083979259847 553.6435071429896Q1375.083979259847 558.8051865520573 1376.0466734353477 561.1607148538144Q1376.9888847560505 563.5162431555714 1379.7335872989674 564.2536259282954Q1382.4578069870865 564.9910087010194 1387.6194863961541 565.1343886846046L1387.6194863961541 565.1343886846046L1387.6194863961541 568.534542581054L1354.4372616235764 568.534542581054L1354.4372616235764 565.1343886846046Q1357.6735526816426 564.9910087010194 1359.598941032644 564.2536259282954Q1361.5038465288476 563.5162431555714 1362.4050921399546 561.1607148538144Q1363.2858548962638 558.8051865520573 1363.2858548962638 553.6435071429896L1363.2858548962638 553.6435071429896L1363.2858548962638 521.93604791586Q1363.2858548962638 516.7743685067923 1360.9917751589005 513.8248374158965Q1358.718178276335 510.8753063250007 1353.1058760617138 510.8753063250007L1353.1058760617138 510.8753063250007Q1348.2309566198164 510.8753063250007 1342.9258972271637 512.9440746595873Q1337.6208378345107 514.992360139376 1332.0085356198897 519.4166567757197L1332.0085356198897 519.4166567757197L1332.0085356198897 553.6435071429896Q1332.0085356198897 558.8051865520573 1332.9712297953902 561.1607148538144Q1333.933923970891 563.5162431555714 1336.65814365901 564.2536259282954Q1339.382363347129 564.9910087010194 1344.5440427561969 565.1343886846046L1344.5440427561969 565.1343886846046L1344.5440427561969 568.534542581054L1311.361817983619 568.534542581054L1311.361817983619 565.1343886846046Q1314.7619718800684 564.9910087010194 1316.6873602310698 564.2536259282954Q1318.5922657272733 563.5162431555714 1319.4115799191889 561.1607148538144Q1320.2104112563065 558.8051865520573 1320.2104112563065 553.6435071429896L1320.2104112563065 553.6435071429896L1320.2104112563065 520.1540395484437Q1320.2104112563065 516.1803657176536 1319.042888532827 514.9309115749824Q1317.8548829545493 513.6814574323113 1315.7861146199627 513.6814574323113L1315.7861146199627 513.6814574323113Q1314.1679690909295 513.6814574323113 1312.631754981088 514.0501488186733Q1311.0750580164486 514.4188402050352 1309.4569124874156 515.1562229777592L1309.4569124874156 515.1562229777592L1307.9821469419676 511.7560690813098L1331.7217756527193 500.6953274904506L1332.6025384090283 501.57609024675975Q1332.3157784418581 502.90747580862245 1331.947087055496 506.7377696558274Q1331.578395669134 510.56806350303236 1331.578395669134 514.8489801557909L1331.578395669134 514.8489801557909L1331.8651556363045 514.8489801557909Q1337.4774578509255 508.9499179739993 1344.0319713862496 505.20155554598585Q1350.6069677763714 501.43271026317456 1358.2675554707814 501.43271026317456L1358.2675554707814 501.43271026317456Q1367.7101515326076 501.43271026317456 1371.3970653962272 506.082318302295Q1375.083979259847 510.7319263414155 1375.083979259847 518.3925140358253L1375.083979259847 518.3925140358253ZM1426.5573933669382 570.7466908992258L1426.5573933669382 570.7466908992258Q1418.8763228177304 570.7466908992258 1412.014566460438 567.1417084547975Q1405.1732929579437 563.5162431555714 1400.8923763051853 556.2243468475235Q1396.6114596524267 548.9119676846776 1396.6114596524267 538.0150889322015L1396.6114596524267 538.0150889322015Q1396.6114596524267 526.3603445522035 1401.5478276587176 518.1672026330486Q1406.4841956650084 509.9945435686915 1414.5954061649718 505.71362691593305Q1422.7066166649352 501.43271026317456 1431.8624527595912 501.43271026317456L1431.8624527595912 501.43271026317456Q1436.4301293795197 501.43271026317456 1441.8171201913642 502.620715841452Q1447.2041110032087 503.7882385649316 1451.4645448011693 506.7377696558274L1451.4645448011693 506.7377696558274L1451.4645448011693 526.0531017302353L1448.084873759518 526.0531017302353Q1447.347490986794 518.3925140358253 1444.254579912313 514.2549773666522Q1441.1411859830341 510.13792355227673 1437.0855807330522 508.5197780232436Q1433.0299754830705 506.8811496394126 1429.0563016522804 506.8811496394126L1429.0563016522804 506.8811496394126Q1419.3269456232838 506.8811496394126 1414.021886230631 514.1935288022585Q1408.6963439831802 521.4854251103063 1408.6963439831802 532.4027867175804L1408.6963439831802 532.4027867175804Q1408.6963439831802 541.1080000066826 1411.7278064932675 547.5191335584213Q1414.7592690033548 553.9302671101601 1420.0643283960078 557.4738009901946Q1425.3693877886608 561.0173348702292 1432.0058327431761 561.0173348702292L1432.0058327431761 561.0173348702292Q1437.167512152244 561.0173348702292 1442.24726014212 558.7232551328657Q1447.347490986794 556.4496582503002 1451.4645448011693 552.4555015647122L1451.4645448011693 552.4555015647122L1453.840555957724 554.8110298664692Q1449.7030192885509 561.7547176429531 1442.615951528482 566.2404628436905Q1435.5493666232107 570.7466908992258 1426.5573933669382 570.7466908992258ZM1529.3403587427374 518.3925140358253L1529.3403587427374 553.6435071429896Q1529.3403587427374 558.8051865520573 1530.303052918238 561.1607148538144Q1531.2657470937388 563.5162431555714 1533.989966781858 564.2536259282954Q1536.714186469977 564.9910087010194 1541.7324858954594 565.1343886846046L1541.7324858954594 565.1343886846046L1541.7324858954594 568.534542581054L1508.6936411064667 568.534542581054L1508.6936411064667 565.1343886846046Q1512.093795002916 564.9910087010194 1513.9987004991196 564.2536259282954Q1515.924088850121 563.5162431555714 1516.7229201872387 561.1607148538144Q1517.5422343791543 558.8051865520573 1517.5422343791543 553.6435071429896L1517.5422343791543 553.6435071429896L1517.5422343791543 521.93604791586Q1517.5422343791543 516.7743685067923 1515.3300860609825 513.8248374158965Q1513.1179377428105 510.8753063250007 1507.362255544604 510.8753063250007L1507.362255544604 510.8753063250007Q1502.6511989410901 510.8753063250007 1497.2642081292456 512.9440746595873Q1491.8772173174011 514.992360139376 1486.285397957578 519.4166567757197L1486.285397957578 519.4166567757197L1486.285397957578 553.6435071429896Q1486.285397957578 558.8051865520573 1487.3095406974724 561.1607148538144Q1488.3336834373667 563.5162431555714 1491.0783859802837 564.2536259282954Q1493.8026056684025 564.9910087010194 1498.8209050938851 565.1343886846046L1498.8209050938851 565.1343886846046L1498.8209050938851 568.534542581054L1465.6386803213072 568.534542581054L1465.6386803213072 565.1343886846046Q1469.0183513629588 564.9910087010194 1470.9437397139602 564.2536259282954Q1472.8486452101638 563.5162431555714 1473.6679594020793 561.1607148538144Q1474.4872735939948 558.8051865520573 1474.4872735939948 553.6435071429896L1474.4872735939948 553.6435071429896L1474.4872735939948 471.65063938704617Q1474.4872735939948 467.5131027178729 1473.2992680157172 466.32509713959547Q1472.11126243744 465.1575744161159 1469.899114119268 465.1575744161159L1469.899114119268 465.1575744161159Q1467.9942086230644 465.1575744161159 1465.8435088692863 465.7515772052546Q1463.7132919703058 466.32509713959547 1461.9517664576877 467.2263427507025L1461.9517664576877 467.2263427507025L1460.4770009122399 463.8261888542532L1485.9781551356095 452.02806449067003L1486.8589178919187 452.9088272469792Q1486.7155379083335 454.0968328252566 1486.4902265055568 459.2585122343243Q1486.285397957578 464.4201916433919 1486.285397957578 471.4867765486631L1486.285397957578 471.4867765486631L1486.285397957578 514.8489801557909Q1492.0205973009865 508.9499179739993 1498.513662271917 505.20155554598585Q1505.006727242847 501.43271026317456 1512.667314937257 501.43271026317456L1512.667314937257 501.43271026317456Q1521.8231510319126 501.43271026317456 1525.571513459926 506.082318302295Q1529.3403587427374 510.7319263414155 1529.3403587427374 518.3925140358253L1529.3403587427374 518.3925140358253ZM1567.233640118829 570.7466908992258L1567.233640118829 570.7466908992258Q1560.3104351971433 570.7466908992258 1555.968069979991 567.1417084547975Q1551.6052219080411 563.5162431555714 1551.6052219080411 556.7364182174707L1551.6052219080411 556.7364182174707Q1551.6052219080411 551.2879788412326 1555.0053758044905 546.6998193665058Q1558.385046846142 542.132142746577 1566.2094973789349 538.301848899372Q1574.0339479117279 534.4715550521671 1587.450217804344 531.2147811393029L1587.450217804344 531.2147811393029L1587.450217804344 521.6288050938915Q1587.450217804344 515.5863629285147 1584.86937809981 511.6126890977246Q1582.2885383952766 507.6185324121366 1575.058090651622 507.6185324121366L1575.058090651622 507.6185324121366Q1568.1348857299363 507.6185324121366 1564.0792804799544 511.98138048408657Q1560.023675229973 516.3237457012387 1558.385046846142 525.4795817958944L1558.385046846142 525.4795817958944L1555.0053758044905 525.4795817958944L1555.0053758044905 507.0450124777957Q1560.167055213558 504.52562133765554 1565.9841859761582 502.989407227814Q1571.821799593556 501.43271026317456 1578.8883844988272 501.43271026317456L1578.8883844988272 501.43271026317456Q1586.9995949987906 501.43271026317456 1591.3624430707405 503.56292716215484Q1595.7048082878928 505.71362691593305 1597.4663338005112 509.543920763138Q1599.2483421679271 513.374214610343 1599.2483421679271 518.5358940194105L1599.2483421679271 518.5358940194105L1599.2483421679271 554.2375099321284Q1599.2483421679271 562.0414776101236 1604.1027787550265 562.0414776101236L1604.1027787550265 562.0414776101236Q1605.884787122443 562.0414776101236 1608.1583840050084 560.873954886644Q1610.4524637423717 559.6859493083665 1613.545374816853 555.9990354447467L1613.545374816853 555.9990354447467L1615.9009031186097 558.3545637465038Q1609.121078180509 570.0093081265018 1599.678482118683 570.0093081265018L1599.678482118683 570.0093081265018Q1589.9491260896864 570.0093081265018 1587.7369777715146 560.13657211392L1587.7369777715146 560.13657211392L1587.450217804344 560.13657211392Q1579.3390073043806 570.7466908992258 1567.233640118829 570.7466908992258ZM1572.7025623498653 562.0414776101236L1572.7025623498653 562.0414776101236Q1579.7691472551364 562.0414776101236 1587.450217804344 555.5484126391932L1587.450217804344 555.5484126391932L1587.450217804344 535.8029406140297Q1576.8196161642404 538.4452288829572 1571.821799593556 541.6200713766298Q1566.8035001680737 544.7949138703023 1565.2468032034342 547.9697563639749Q1563.7105890935927 551.1241160028495 1563.7105890935927 553.7868871265748L1563.7105890935927 553.7868871265748Q1563.7105890935927 558.0678037793334 1566.3528773625198 560.0546406947285Q1569.0156484862455 562.0414776101236 1572.7025623498653 562.0414776101236ZM1656.62081845681 568.534542581054L1621.9638281387845 568.534542581054L1621.9638281387845 565.1343886846046Q1625.3434991804359 564.9910087010194 1627.2688875314373 564.2536259282954Q1629.1737930276408 563.5162431555714 1629.9931072195564 561.1607148538144Q1630.8124214114719 558.8051865520573 1630.8124214114719 553.6435071429896L1630.8124214114719 553.6435071429896L1630.8124214114719 519.8672795812732Q1630.8124214114719 516.0369857340684 1629.6244158331942 514.8489801557909Q1628.436410254917 513.6814574323113 1626.3881247751283 513.6814574323113L1626.3881247751283 513.6814574323113Q1624.749496391297 513.6814574323113 1623.2132822814556 514.0501488186733Q1621.6565853168163 514.4188402050352 1620.038439787783 515.1562229777592L1620.038439787783 515.1562229777592L1618.563674242335 511.7560690813098L1642.3033029530866 500.6953274904506L1643.1840657093958 501.57609024675975Q1642.8973057422254 502.90747580862245 1642.5286143558633 507.2498410257746Q1642.1599229695016 511.6126890977246 1642.1599229695016 516.7743685067923L1642.1599229695016 516.7743685067923L1642.446682936672 516.7743685067923Q1648.5096079568466 507.78239525051964 1655.8015042648944 504.6690013212408Q1663.0934005729423 501.57609024675975 1671.0612310893207 502.1700930358985L1671.0612310893207 502.1700930358985Q1672.249236667598 513.0874546431726 1671.0612310893207 524.0048162504465L1671.0612310893207 524.0048162504465L1667.6815600476693 524.0048162504465Q1667.0875572585305 517.9418912302718 1664.9368575047524 515.5249143641211Q1662.806640605772 513.0874546431726 1658.9763467585672 513.0874546431726L1658.9763467585672 513.0874546431726Q1654.1014273166697 513.0874546431726 1650.271133469465 515.1562229777592Q1646.44083962226 517.204508457548 1642.610545775055 521.93604791586L1642.610545775055 521.93604791586L1642.610545775055 553.6435071429896Q1642.610545775055 558.8051865520573 1643.6346885149494 561.1607148538144Q1644.6588312548438 563.5162431555714 1647.690293764931 564.2536259282954Q1650.7217562750184 564.9910087010194 1656.62081845681 565.1343886846046L1656.62081845681 565.1343886846046L1656.62081845681 568.534542581054ZM1751.435953316231 557.1870410230242L1751.435953316231 557.1870410230242L1752.910718861679 560.5667120646756L1728.884330183757 571.627453655535L1727.9830845726501 570.7466908992258Q1728.2903273946183 569.415305337363 1728.6590187809802 565.5030800709665Q1729.0277101673423 561.6113376593679 1729.0277101673423 557.1870410230242L1729.0277101673423 557.1870410230242L1728.884330183757 557.1870410230242Q1725.033553481754 562.6354803992623 1719.216422719154 566.691085649244Q1713.3992919565542 570.7466908992258 1705.2880814565906 570.7466908992258L1705.2880814565906 570.7466908992258Q1698.3443936801068 570.7466908992258 1692.3838829339215 567.1417084547975Q1686.4028893329385 563.5162431555714 1682.7979068885102 556.5930382338854Q1679.172441589284 549.6493504574016 1679.172441589284 539.7766144448199L1679.172441589284 539.7766144448199Q1679.172441589284 530.3340183829937 1682.4906640665417 523.185502058531Q1685.8088865437996 516.0369857340684 1691.3392573392293 511.16206629217106Q1696.8696281346588 506.30762970507175 1703.5880045083659 503.87016998412315Q1710.2858980272754 501.43271026317456 1717.0862058201737 501.43271026317456L1717.0862058201737 501.43271026317456Q1723.8660307582745 501.43271026317456 1728.720467345374 502.76409582503726L1728.720467345374 502.76409582503726L1728.720467345374 471.65063938704617Q1728.720467345374 467.5131027178729 1727.4710132027028 466.32509713959547Q1726.2215590600317 465.1575744161159 1724.152790725445 465.1575744161159L1724.152790725445 465.1575744161159Q1722.2478852292415 465.1575744161159 1720.0971854754634 465.7515772052546Q1717.966968576483 466.32509713959547 1716.184960209067 467.2263427507025L1716.184960209067 467.2263427507025L1714.710194663619 463.8261888542532L1740.2318317417867 452.02806449067003L1741.1125944980959 452.9088272469792Q1740.9692145145104 454.0968328252566 1740.7439031117337 459.2585122343243Q1740.518591708957 464.4201916433919 1740.518591708957 471.4867765486631L1740.518591708957 471.4867765486631L1740.518591708957 552.0253616139565Q1740.518591708957 556.142415428332 1741.788528706426 557.3304210066094Q1743.0379828490973 558.497943730089 1745.106751183684 558.497943730089L1745.106751183684 558.497943730089Q1748.1996622581648 558.497943730089 1751.435953316231 557.1870410230242ZM1709.8557580765196 561.8980976265383L1709.8557580765196 561.8980976265383Q1715.0174374855872 561.8980976265383 1719.8104255082928 559.235326502813Q1724.6034135309983 556.5930382338854 1728.720467345374 552.7627443866805L1728.720467345374 552.7627443866805L1728.720467345374 514.111597383067Q1725.197416320137 510.2813035358619 1720.8345682481872 509.17522937677603Q1716.492203031035 508.0691552176901 1713.235429118171 508.0691552176901L1713.235429118171 508.0691552176901Q1703.8133159111428 508.0691552176901 1697.5455623429893 514.4802887694289Q1691.2778087748356 520.8914223211676 1691.2778087748356 534.7583150193375L1691.2778087748356 534.7583150193375Q1691.2778087748356 547.4372021392298 1696.4394881839032 554.667649882884Q1701.6011675929708 561.8980976265383 1709.8557580765196 561.8980976265383ZM1806.739661270527 601.7167673536317L1806.739661270527 601.7167673536317L1806.739661270527 598.4804762955653Q1811.7579606960098 597.5792306844583 1814.256868981352 594.4248710455836Q1816.7762601214922 591.2500285519111 1817.6570228778014 584.9822749837576Q1818.5377856341106 578.7145214156039 1818.5377856341106 568.534542581054L1818.5377856341106 568.534542581054L1818.5377856341106 485.21028926324766Q1818.5377856341106 480.04860985418003 1817.4317114750243 477.7545301168166Q1816.3256373159388 475.48093323425115 1813.3761062250428 474.7435504615272Q1810.4265751341468 474.00616768880326 1804.5275129523552 473.86278770521807L1804.5275129523552 473.86278770521807L1804.5275129523552 470.4626338087687L1841.3966515885527 470.4626338087687L1841.3966515885527 473.86278770521807Q1837.4229777577625 474.00616768880326 1835.2108294395907 474.7435504615272Q1832.998681121419 475.48093323425115 1832.035986945918 477.7545301168166Q1831.0732927704175 480.04860985418003 1831.0732927704175 485.21028926324766L1831.0732927704175 485.21028926324766L1831.0732927704175 570.4599309320554Q1831.0732927704175 581.0700497173609 1827.7550702931599 587.9932546390469Q1824.4368478159022 594.9369424155309 1818.9064770204723 598.3166134571823Q1813.3761062250428 601.7167673536317 1806.739661270527 601.7167673536317ZM1887.2577634810227 570.7466908992258L1887.2577634810227 570.7466908992258Q1879.7405557701982 570.7466908992258 1872.8787994129061 567.2031570191912Q1866.0375259104112 563.6596231391566 1861.6746778384613 556.5111068146939Q1857.332312621309 549.3625904902312 1857.332312621309 538.301848899372L1857.332312621309 538.301848899372Q1857.332312621309 527.0977273249275 1861.756609257653 518.8431368413789Q1866.1809058939966 510.56806350303236 1873.5547336212362 506.00038688310343Q1880.9285613484753 501.43271026317456 1889.633774637578 501.43271026317456L1889.633774637578 501.43271026317456Q1895.962976770125 501.43271026317456 1901.3499675819694 503.93161854851684Q1906.736958393814 506.451009688657 1910.0551808710716 511.6126890977246Q1913.3734033483292 516.7743685067923 1913.3734033483292 524.7421990231705L1913.3734033483292 524.7421990231705L1869.1304369848922 530.477398366579Q1869.1304369848922 531.2147811393029 1869.1304369848922 532.1160267504099L1869.1304369848922 532.1160267504099Q1869.1304369848922 545.6756766266114 1875.3162591338541 553.3362643210214Q1881.5225641376146 561.0173348702292 1891.8459229557498 561.0173348702292L1891.8459229557498 561.0173348702292Q1897.7449851375413 561.0173348702292 1902.7428017082257 558.5798751492805Q1907.761101133708 556.142415428332 1911.7552578192963 552.4555015647122L1911.7552578192963 552.4555015647122L1914.1107861210535 554.8110298664692Q1909.9732494518798 561.8980976265383 1903.1114930945878 566.322394262882Q1896.2702195920933 570.7466908992258 1887.2577634810227 570.7466908992258ZM1886.520380708299 506.8811496394126L1886.520380708299 506.8811496394126Q1878.859793013889 506.8811496394126 1874.7222563447158 512.3500718704486Q1870.6052025303402 517.7985112466866 1869.560576935648 525.7663417630649L1869.560576935648 525.7663417630649L1900.100513439298 521.7926679322748Q1899.2197506829893 515.4429829449296 1896.2702195920933 511.16206629217106Q1893.3206885011978 506.8811496394126 1886.520380708299 506.8811496394126ZM1977.6690845588978 452.02806449067003L1977.6690845588978 452.02806449067003Q1979.4306100715162 462.2080433252201 1977.6690845588978 472.3880221597702L1977.6690845588978 472.3880221597702L1974.2689306624488 472.3880221597702Q1973.695410728108 465.5877143668715 1971.3193995715528 462.2080433252201Q1968.9638712697956 458.80788942877075 1963.8021918607283 458.80788942877075L1963.8021918607283 458.80788942877075Q1946.412248137322 458.80788942877075 1946.412248137322 493.6082597303815L1946.412248137322 493.6082597303815L1946.412248137322 503.6448585813464L1968.2264884970718 503.6448585813464L1968.2264884970718 509.68730074672317L1950.979924757251 509.68730074672317Q1948.4605336171107 509.68730074672317 1947.4363908772161 510.7319263414155Q1946.412248137322 511.7560690813098 1946.412248137322 514.2549773666522L1946.412248137322 514.2549773666522L1946.412248137322 553.6435071429896Q1946.412248137322 558.8051865520573 1947.5183222964079 561.1607148538144Q1948.6243964554938 563.5162431555714 1951.9426189327514 564.2536259282954Q1955.260841410009 564.9910087010194 1961.8972863645245 565.1343886846046L1961.8972863645245 565.1343886846046L1961.8972863645245 568.534542581054L1925.7655305010512 568.534542581054L1925.7655305010512 565.1343886846046Q1929.0018215591172 564.9910087010194 1930.927209910119 564.2536259282954Q1932.8321154063224 563.5162431555714 1933.7128781626316 561.1607148538144Q1934.6141237737388 558.8051865520573 1934.6141237737388 553.6435071429896L1934.6141237737388 553.6435071429896L1934.6141237737388 509.68730074672317L1924.4341449391886 509.68730074672317L1924.4341449391886 503.6448585813464L1934.6141237737388 503.6448585813464L1934.6141237737388 493.1781197796259Q1934.6141237737388 478.57384430873213 1940.0625631499765 468.9878682633208Q1945.5110025262147 459.4018922179095 1955.260841410009 455.0595270007573Q1964.990197439006 450.69667892880733 1977.6690845588978 452.02806449067003ZM2026.3363475586784 452.02806449067003L2026.3363475586784 452.02806449067003Q2028.0978730712968 462.2080433252201 2026.3363475586784 472.3880221597702L2026.3363475586784 472.3880221597702L2022.9361936622295 472.3880221597702Q2022.3626737278887 465.5877143668715 2019.9866625713335 462.2080433252201Q2017.6311342695763 458.80788942877075 2012.469454860509 458.80788942877075L2012.469454860509 458.80788942877075Q1995.0795111371026 458.80788942877075 1995.0795111371026 493.6082597303815L1995.0795111371026 493.6082597303815L1995.0795111371026 503.6448585813464L2016.8937514968525 503.6448585813464L2016.8937514968525 509.68730074672317L1999.6471877570311 509.68730074672317Q1997.1277966168914 509.68730074672317 1996.1036538769968 510.7319263414155Q1995.0795111371026 511.7560690813098 1995.0795111371026 514.2549773666522L1995.0795111371026 514.2549773666522L1995.0795111371026 553.6435071429896Q1995.0795111371026 558.8051865520573 1996.185585296188 561.1607148538144Q1997.2916594552744 563.5162431555714 2000.609881932532 564.2536259282954Q2003.9281044097897 564.9910087010194 2010.5645493643055 565.1343886846046L2010.5645493643055 565.1343886846046L2010.5645493643055 568.534542581054L1974.4327935008318 568.534542581054L1974.4327935008318 565.1343886846046Q1977.6690845588978 564.9910087010194 1979.5944729098997 564.2536259282954Q1981.499378406103 563.5162431555714 1982.3801411624122 561.1607148538144Q1983.281386773519 558.8051865520573 1983.281386773519 553.6435071429896L1983.281386773519 553.6435071429896L1983.281386773519 509.68730074672317L1973.1014079389688 509.68730074672317L1973.1014079389688 503.6448585813464L1983.281386773519 503.6448585813464L1983.281386773519 493.1781197796259Q1983.281386773519 478.57384430873213 1988.7298261497572 468.9878682633208Q1994.1782655259954 459.4018922179095 2003.9281044097897 455.0595270007573Q2013.6574604387865 450.69667892880733 2026.3363475586784 452.02806449067003ZM2052.738747393156 570.7466908992258L2052.738747393156 570.7466908992258Q2045.2215396823308 570.7466908992258 2038.3597833250383 567.2031570191912Q2031.4980269677462 563.6596231391566 2027.155661750594 556.5111068146939Q2022.792813678644 549.3625904902312 2022.792813678644 538.301848899372L2022.792813678644 538.301848899372Q2022.792813678644 527.0977273249275 2027.217110314988 518.8431368413789Q2031.6414069513316 510.56806350303236 2039.0152346785712 506.00038688310343Q2046.3890624058104 501.43271026317456 2055.0942756949125 501.43271026317456L2055.0942756949125 501.43271026317456Q2061.4439606822575 501.43271026317456 2066.810468639304 503.93161854851684Q2072.1974594511485 506.451009688657 2075.515681928406 511.6126890977246Q2078.8339044056643 516.7743685067923 2078.8339044056643 524.7421990231705L2078.8339044056643 524.7421990231705L2034.5909380422272 530.477398366579Q2034.5909380422272 531.2147811393029 2034.5909380422272 532.1160267504099L2034.5909380422272 532.1160267504099Q2034.5909380422272 545.6756766266114 2040.7972430459872 553.3362643210214Q2046.9830651949492 561.0173348702292 2057.3064240130843 561.0173348702292L2057.3064240130843 561.0173348702292Q2063.205486194876 561.0173348702292 2068.2237856203583 558.5798751492805Q2073.2420850458407 556.142415428332 2077.215758876631 552.4555015647122L2077.215758876631 552.4555015647122L2079.571287178388 554.8110298664692Q2075.454233364013 561.8980976265383 2068.5924770067204 566.322394262882Q2061.730720649428 570.7466908992258 2052.738747393156 570.7466908992258ZM2052.0013646204316 506.8811496394126L2052.0013646204316 506.8811496394126Q2044.3202940712235 506.8811496394126 2040.2032402568484 512.3500718704486Q2036.0657035876752 517.7985112466866 2035.0415608477806 525.7663417630649L2035.0415608477806 525.7663417630649L2065.561014496633 521.7926679322748Q2064.680251740324 515.4429829449296 2061.730720649428 511.16206629217106Q2058.7811895585323 506.8811496394126 2052.0013646204316 506.8811496394126ZM2126.026401859997 568.534542581054L2091.369411541971 568.534542581054L2091.369411541971 565.1343886846046Q2094.7695654384206 564.9910087010194 2096.6744709346244 564.2536259282954Q2098.5998592856254 563.5162431555714 2099.4191734775413 561.1607148538144Q2100.218004814659 558.8051865520573 2100.218004814659 553.6435071429896L2100.218004814659 553.6435071429896L2100.218004814659 519.8672795812732Q2100.218004814659 516.0369857340684 2099.050482091179 514.8489801557909Q2097.862476512902 513.6814574323113 2095.793708178315 513.6814574323113L2095.793708178315 513.6814574323113Q2094.175562649282 513.6814574323113 2092.6188656846425 514.0501488186733Q2091.082651574801 514.4188402050352 2089.464506045768 515.1562229777592L2089.464506045768 515.1562229777592L2087.98974050032 511.7560690813098L2111.7293692110716 500.6953274904506L2112.6101319673808 501.57609024675975Q2112.32337200021 502.90747580862245 2111.9546806138483 507.2498410257746Q2111.585989227486 511.6126890977246 2111.585989227486 516.7743685067923L2111.585989227486 516.7743685067923L2111.8727491946565 516.7743685067923Q2117.9151913600335 507.78239525051964 2125.2275705228794 504.6690013212408Q2132.5194668309273 501.57609024675975 2140.4872973473057 502.1700930358985L2140.4872973473057 502.1700930358985Q2141.6548200707853 513.0874546431726 2140.4872973473057 524.0048162504465L2140.4872973473057 524.0048162504465L2137.0871434508563 524.0048162504465Q2136.4931406617175 517.9418912302718 2134.3629237627374 515.5249143641211Q2132.232706863757 513.0874546431726 2128.381930161754 513.0874546431726L2128.381930161754 513.0874546431726Q2123.5274935746547 513.0874546431726 2119.69719972745 515.1562229777592Q2115.8464230254467 517.204508457548 2112.016129178242 521.93604791586L2112.016129178242 521.93604791586L2112.016129178242 553.6435071429896Q2112.016129178242 558.8051865520573 2113.060754772934 561.1607148538144Q2114.084897512829 563.5162431555714 2117.1163600229156 564.2536259282954Q2120.1273396782053 564.9910087010194 2126.026401859997 565.1343886846046L2126.026401859997 565.1343886846046L2126.026401859997 568.534542581054ZM2169.9826082562636 570.7466908992258L2169.9826082562636 570.7466908992258Q2159.5158694545426 570.7466908992258 2153.903567239922 566.7730170684356Q2148.2912650253006 562.7788603828475 2148.2912650253006 556.5930382338854L2148.2912650253006 556.5930382338854Q2148.2912650253006 554.3808899157136 2149.1925106364074 551.6566702275945Q2150.0732733927166 548.9119676846776 2152.2854217108884 546.2696794157503L2152.2854217108884 546.2696794157503L2155.6650927525397 546.2696794157503Q2155.828955590923 555.7122754775763 2159.6592494381284 560.7100920482608Q2163.489543285333 565.7283914737433 2171.7441337688815 565.7283914737433L2171.7441337688815 565.7283914737433Q2179.117961496121 565.7283914737433 2182.661495376156 562.1848575937088Q2186.2050292561903 558.6618065684721 2186.2050292561903 554.0736470937453L2186.2050292561903 554.0736470937453Q2186.2050292561903 549.9565932793699 2183.6241895516564 547.2938221556445Q2181.0433498471225 544.6515338867171 2176.987744597141 542.6442141165242Q2172.932139347159 540.6573772011291 2168.36446272723 538.8139202693192Q2163.7763032525036 536.9704633375093 2159.7206980025217 534.6968664549438Q2155.6650927525397 532.4027867175804 2153.0842530480063 529.0026328211311Q2150.5034133434724 525.6229617794796 2150.5034133434724 520.4612823704119L2150.5034133434724 520.4612823704119Q2150.5034133434724 512.3500718704486 2156.9964783144023 506.8811496394126Q2163.489543285333 501.43271026317456 2175.144287665331 501.43271026317456L2175.144287665331 501.43271026317456Q2179.71196428526 501.43271026317456 2184.423020888774 502.25202445509007Q2189.154560347086 503.05085579220764 2193.2716141614615 505.40638409396473L2193.2716141614615 505.40638409396473L2193.2716141614615 522.3661878666155L2189.89194311981 522.3661878666155Q2188.847317525118 513.6814574323113 2184.279640905189 510.05599213308517Q2179.71196428526 506.451009688657 2173.526142136298 506.451009688657L2173.526142136298 506.451009688657Q2167.4632171161234 506.451009688657 2164.3703060416424 509.09329795758447Q2161.277394967161 511.7560690813098 2161.277394967161 516.0369857340684L2161.277394967161 516.0369857340684Q2161.277394967161 520.0106595648585 2163.858234671695 522.5914992693922Q2166.4390743762287 525.1723389739261 2170.4946796262107 527.0977273249275Q2174.5502848761926 529.0026328211311 2179.0565129317274 530.846089752941Q2183.542258132465 532.6895466847508 2187.5978633824466 535.1270064056994Q2191.6534686324285 537.5644661266481 2194.2343083369624 541.1694485710761Q2196.815148041496 544.7949138703023 2196.815148041496 550.2433532465403L2196.815148041496 550.2433532465403Q2196.815148041496 560.13657211392 2189.154560347086 565.4416315065728Q2181.4734897978783 570.7466908992258 2169.9826082562636 570.7466908992258ZM2242.840122772349 501.43271026317456L2242.840122772349 501.43271026317456Q2251.381473223068 501.43271026317456 2258.529989547531 505.6316954967415Q2265.6989887267914 509.8306807303084 2270.123285363135 517.368371295931Q2274.547581999479 524.8855790067557 2274.547581999479 534.9016950029227L2274.547581999479 534.9016950029227Q2274.547581999479 543.75028827561 2271.5161194893913 550.4686646493171Q2268.4846569793044 557.1870410230242 2263.4868404086196 561.6727862237616Q2258.4685409831372 566.1790142792968 2252.487547382154 568.4526111618623Q2246.5270366359687 570.7466908992258 2240.7713544377625 570.7466908992258L2240.7713544377625 570.7466908992258Q2232.3529011158307 570.7466908992258 2225.1429362269746 566.5477056656588Q2217.91248848332 562.3487204320918 2213.54964041137 554.8110298664692Q2209.207275194218 547.2938221556445 2209.207275194218 537.2777061594776L2209.207275194218 537.2777061594776Q2209.207275194218 528.4291128867902 2212.238737704305 521.7107365130831Q2215.249717359595 514.992360139376 2220.268016785077 510.5066149386387Q2225.2863162105596 506.00038688310343 2231.185378392351 503.72679000053796Q2237.0844405741427 501.43271026317456 2242.840122772349 501.43271026317456ZM2243.2702627231047 564.8476287174342L2243.2702627231047 564.8476287174342Q2251.975476012207 564.8476287174342 2256.9937754376892 558.5798751492805Q2262.0120748631716 552.312121581127 2262.0120748631716 539.1826116556811L2262.0120748631716 539.1826116556811Q2262.0120748631716 530.1906383994085 2259.2673723202547 522.9601906557543Q2256.5431526321354 515.7297429120999 2251.6887160450365 511.53075767853306Q2246.813796603139 507.33177244496613 2240.3207316322087 507.33177244496613L2240.3207316322087 507.33177244496613Q2231.77938118149 507.33177244496613 2226.7610817560076 513.5995260131197Q2221.7427823305247 519.8672795812732 2221.7427823305247 532.9967895067191L2221.7427823305247 532.9967895067191Q2221.7427823305247 541.8453827794065 2224.467002018644 549.0758305230607Q2227.1912217067634 556.2857954119172 2232.0661411486603 560.5667120646756Q2236.9410605905578 564.8476287174342 2243.2702627231047 564.8476287174342ZM2352.2595331026637 518.3925140358253L2352.2595331026637 553.6435071429896Q2352.2595331026637 558.8051865520573 2353.2222272781646 561.1607148538144Q2354.184921453665 563.5162431555714 2356.9091411417844 564.2536259282954Q2359.6333608299033 564.9910087010194 2364.795040238971 565.1343886846046L2364.795040238971 565.1343886846046L2364.795040238971 568.534542581054L2331.6128154663934 568.534542581054L2331.6128154663934 565.1343886846046Q2334.8491065244593 564.9910087010194 2336.7744948754607 564.2536259282954Q2338.699883226462 563.5162431555714 2339.580645982772 561.1607148538144Q2340.4614087390805 558.8051865520573 2340.4614087390805 553.6435071429896L2340.4614087390805 553.6435071429896L2340.4614087390805 521.93604791586Q2340.4614087390805 516.7743685067923 2338.1673290017175 513.8248374158965Q2335.8937321191515 510.8753063250007 2330.281429904531 510.8753063250007L2330.281429904531 510.8753063250007Q2325.426993317431 510.8753063250007 2320.1014510699806 512.9440746595873Q2314.796391677328 514.992360139376 2309.2045723175042 519.4166567757197L2309.2045723175042 519.4166567757197L2309.2045723175042 553.6435071429896Q2309.2045723175042 558.8051865520573 2310.146783638207 561.1607148538144Q2311.109477813708 563.5162431555714 2313.833697501827 564.2536259282954Q2316.578400044744 564.9910087010194 2321.7400794538116 565.1343886846046L2321.7400794538116 565.1343886846046L2321.7400794538116 568.534542581054L2288.557854681234 568.534542581054L2288.557854681234 565.1343886846046Q2291.9375257228853 564.9910087010194 2293.8629140738867 564.2536259282954Q2295.76781957009 563.5162431555714 2296.5871337620056 561.1607148538144Q2297.4064479539215 558.8051865520573 2297.4064479539215 553.6435071429896L2297.4064479539215 553.6435071429896L2297.4064479539215 520.1540395484437Q2297.4064479539215 516.1803657176536 2296.218442375644 514.9309115749824Q2295.0304367973663 513.6814574323113 2292.9821513175775 513.6814574323113L2292.9821513175775 513.6814574323113Q2291.3435229337465 513.6814574323113 2289.807308823905 514.0501488186733Q2288.2506118592655 514.4188402050352 2286.6324663302325 515.1562229777592L2286.6324663302325 515.1562229777592L2285.1577007847845 511.7560690813098L2308.8973294955363 500.6953274904506L2309.7780922518455 501.57609024675975Q2309.4913322846746 502.90747580862245 2309.122640898313 506.7377696558274Q2308.753949511951 510.56806350303236 2308.753949511951 514.8489801557909L2308.753949511951 514.8489801557909L2309.0407094791212 514.8489801557909Q2314.6530116937424 508.9499179739993 2321.2075252290665 505.20155554598585Q2327.782521619188 501.43271026317456 2335.443109313598 501.43271026317456L2335.443109313598 501.43271026317456Q2344.885705375424 501.43271026317456 2348.5726192390443 506.082318302295Q2352.2595331026637 510.7319263414155 2352.2595331026637 518.3925140358253L2352.2595331026637 518.3925140358253Z " fill="#42e0ce" transform="matrix(0.37001092778789263,0,0,0.37001092778789263,0,105.10904004226585)"/></g></svg>